<svg id="final-logo" xmlns="http://www.w3.org/2000/svg" xmlns:xlink="http://www.w3.org/1999/xlink" width="172" height="48" viewBox="0 0 172 48">
  <defs>
    <style>
      .cls-1 {
        fill: #fff;
      }

      .cls-2 {
        fill: url(#linear-gradient);
      }
    </style>
    <linearGradient id="linear-gradient" x1="20.627" x2="27.373" y2="48" gradientUnits="userSpaceOnUse">
      <stop offset="0.175" stop-color="#38d870"/>
      <stop offset="0.825" stop-color="#05c8f9"/>
    </linearGradient>
  </defs>
  <path id="Altech" class="cls-1" d="M166.836,37.44V26.424a5.189,5.189,0,0,0-1.232-3.69,4.4,4.4,0,0,0-3.37-1.314,4.524,4.524,0,0,0-3.48,1.4,5.714,5.714,0,0,0-1.3,4.032V37.44h-5.11V10.8h5.11V21.492a6.362,6.362,0,0,1,2.627-3.15,7.851,7.851,0,0,1,4.222-1.134,7.132,7.132,0,0,1,5.545,2.268,9.119,9.119,0,0,1,2.066,6.372V37.44h-5.074Zm-27.906-4.1a4.586,4.586,0,0,0,2.936-.918,4.139,4.139,0,0,0,1.486-2.5h5.4a9.11,9.11,0,0,1-3.244,5.688,9.98,9.98,0,0,1-6.469,2.088,10.746,10.746,0,0,1-5.219-1.242,8.762,8.762,0,0,1-3.552-3.546A11.1,11.1,0,0,1,129,27.468a11.2,11.2,0,0,1,1.268-5.454,8.621,8.621,0,0,1,3.552-3.546,10.878,10.878,0,0,1,5.219-1.224,9.983,9.983,0,0,1,6.469,2.088,9.113,9.113,0,0,1,3.244,5.688h-5.4a4.14,4.14,0,0,0-1.486-2.5,4.586,4.586,0,0,0-2.936-.918,4.392,4.392,0,0,0-3.388,1.494,6.294,6.294,0,0,0-1.36,4.374,6.292,6.292,0,0,0,1.36,4.374A4.39,4.39,0,0,0,138.93,33.336Zm-27.4-4.9a5.478,5.478,0,0,0,1.45,3.924,4.679,4.679,0,0,0,3.334,1.26,4.861,4.861,0,0,0,2.954-.864,3.822,3.822,0,0,0,1.5-2.34h5.4a8.562,8.562,0,0,1-1.7,3.744,8.894,8.894,0,0,1-3.353,2.592,11.554,11.554,0,0,1-9.767-.306A8.754,8.754,0,0,1,107.8,32.9a11.084,11.084,0,0,1-1.269-5.436,11.189,11.189,0,0,1,1.269-5.454,8.613,8.613,0,0,1,3.551-3.546,10.878,10.878,0,0,1,5.219-1.224,10.641,10.641,0,0,1,5.2,1.224,8.665,8.665,0,0,1,3.443,3.366,9.723,9.723,0,0,1,1.214,4.878,9.62,9.62,0,0,1-.181,1.728H111.531Zm8.463-5.94a4.927,4.927,0,0,0-3.425-1.26,5.04,5.04,0,0,0-3.479,1.26,5.145,5.145,0,0,0-1.559,3.708h9.749A4.456,4.456,0,0,0,119.994,22.5ZM96.074,35.82q-1.794-1.62-1.794-5.4V21.78H91.49V17.5H94.28V12.564h5.11V17.5h4.494V21.78H99.39v8.712a2.8,2.8,0,0,0,.58,2.016,2.717,2.717,0,0,0,1.957.576h1.994V37.44h-2.682A7.453,7.453,0,0,1,96.074,35.82ZM83.48,10.8h5.11V37.44H83.48V10.8ZM73.586,32.328H63.33L61.518,37.44h-5.4l9.423-25.128h5.835L80.762,37.44h-5.4ZM68.44,17.748L64.671,28.476h7.538Z"/>
  <g id="Icon">
    <rect id="bg" class="cls-2" width="48" height="48" rx="24" ry="24"/>
    <path id="A" class="cls-1" d="M32.07,37L25,18.682,17.93,37H12l9.579-26h6.842L38,37H32.07Z"/>
  </g>
</svg>
